<mxfile host="app.diagrams.net" modified="2024-06-30T17:27:35.076Z" agent="Mozilla/5.0 (Windows NT 10.0; Win64; x64) AppleWebKit/537.36 (KHTML, like Gecko) Chrome/126.0.0.0 Safari/537.36" version="24.6.4" etag="mNRaPkfTb3-zbToDSqqt" type="github">
  <diagram name="PÃ¡gina-1" id="t9C7P8yulJ7wRCKUWI3g">
    <mxGraphModel>
      <root>
        <mxCell id="0" />
        <mxCell id="1" parent="0" />
      </root>
    </mxGraphModel>
  </diagram>
</mxfile>
